HIERARCHY
ROOT hip
{
	OFFSET 0.000000 0.000000 0.000000
	CHANNELS 6 Xposition Yposition Zposition Xrotation Zrotation Yrotation 
	JOINT abdomen
	{
		OFFSET 0.000000 3.422050 0.000000
		CHANNELS 3 Xrotation Zrotation Yrotation 
		JOINT chest
		{
			OFFSET 0.000000 8.486693 -0.684411
			CHANNELS 3 Xrotation Zrotation Yrotation 
			JOINT neck
			{
				OFFSET 0.000000 10.266162 -0.273764
				CHANNELS 3 Xrotation Zrotation Yrotation 
				JOINT head
				{
					OFFSET 0.000000 3.148285 0.000000
					CHANNELS 3 Xrotation Zrotation Yrotation 
					End Site
					{
						OFFSET 0.000000 3.148289 0.000000
					}
				}
			}
			JOINT lCollar
			{
				OFFSET 3.422053 6.707223 -0.821293
				CHANNELS 3 Yrotation Zrotation Xrotation 
				JOINT lShldr
				{
					OFFSET 3.285171 0.000000 0.000000
					CHANNELS 3 Zrotation Yrotation Xrotation 
					JOINT lForeArm
					{
						OFFSET 10.129278 0.000000 0.000000
						CHANNELS 3 Yrotation Zrotation Xrotation 
						JOINT lHand
						{
							OFFSET 8.486692 0.000000 0.000000
							CHANNELS 3 Zrotation Yrotation Xrotation 
							End Site
							{
								OFFSET 4.106464 0.000000 0.000000
							}
						}
					}
				}
			}
			JOINT rCollar
			{
				OFFSET -3.558935 6.707223 -0.821293
				CHANNELS 3 Yrotation Zrotation Xrotation 
				JOINT rShldr
				{
					OFFSET -3.148289 0.000000 0.000000
					CHANNELS 3 Zrotation Yrotation Xrotation 
					JOINT rForeArm
					{
						OFFSET -10.266159 0.000000 0.000000
						CHANNELS 3 Yrotation Zrotation Xrotation 
						JOINT rHand
						{
							OFFSET -8.349810 0.000000 0.000000
							CHANNELS 3 Zrotation Yrotation Xrotation 
							End Site
							{
								OFFSET -4.106464 0.000000 0.000000
							}
						}
					}
				}
			}
		}
	}
	JOINT lThigh
	{
		OFFSET 5.338403 -1.642589 1.368821
		CHANNELS 3 Xrotation Zrotation Yrotation 
		JOINT lShin
		{
			OFFSET -2.053232 -20.121670 0.000000
			CHANNELS 3 Xrotation Zrotation Yrotation 
			JOINT lFoot
			{
				OFFSET 0.000000 -19.300380 -1.231939
				CHANNELS 3 Xrotation Yrotation Zrotation 
				End Site
				{
					OFFSET 0.000000 -2.463878 4.653993
				}
			}
		}
	}
	JOINT rThigh
	{
		OFFSET -5.338403 -1.642589 1.368821
		CHANNELS 3 Xrotation Zrotation Yrotation 
		JOINT rShin
		{
			OFFSET 2.053232 -20.121670 0.000000
			CHANNELS 3 Xrotation Zrotation Yrotation 
			JOINT rFoot
			{
				OFFSET 0.000000 -19.300380 -1.231939
				CHANNELS 3 Xrotation Yrotation Zrotation 
				End Site
				{
					OFFSET 0.000000 -2.463878 4.653993
				}
			}
		}
	}
}
MOTION
Frames: 6
Frame Time: 0.033264
0.000000 43.528500 0.000000 0.000000 0.000000 0.000000 0.000000 0.000000 0.000000 0.000000 0.000000 0.000000 0.000000 0.000000 0.000000 0.000000 0.000000 0.000000 0.000000 0.000000 0.000000 0.000000 0.000000 0.000000 0.000000 0.000000 0.000000 0.000000 0.000000 0.000000 0.000000 0.000000 0.000000 0.000000 0.000000 0.000000 0.000000 0.000000 0.000000 0.000000 0.000000 0.000000 0.000000 0.000000 0.000000 0.000000 0.000000 0.000000 0.000000 0.000000 0.000000 0.000000 0.000000 0.000000 0.000000 0.000000 0.000000 0.000000 0.000000 0.000000 
-3.144903 14.653551 -5.247525 -3.002615 0.000000 0.000000 -6.725509 -1.111389 -0.938406 10.176701 -1.432952 16.164867 0.000000 13.997003 0.000000 -0.491350 0.000000 0.000000 -72.272400 1.436422 27.977274 -35.847073 -12.329760 -15.025925 -72.153320 13.092655 -58.097439 -23.533689 9.132754 30.377861 6.456908 -3.356350 -17.955595 79.290222 19.651388 7.209883 41.468258 -11.796091 5.172002 65.316216 -15.729000 5.140419 -124.744064 52.819786 -27.700396 125.114029 11.523615 10.845149 -16.141817 -18.385052 -28.582418 -105.413437 -46.492878 2.480149 136.263351 -10.585276 -13.034883 -33.795914 3.830515 22.985817 
-3.144903 14.729313 -5.255201 -4.814721 0.000000 0.000000 -5.509469 -1.111362 -0.938368 12.042309 -1.432908 16.164747 -0.368658 13.698535 -0.238305 -0.969661 0.000000 0.000000 -72.465012 2.281412 27.490643 -35.503414 -12.241445 -15.145420 -71.818146 13.216398 -58.174011 -23.690468 8.917428 30.253788 6.777740 -3.819075 -19.083374 78.882736 19.705156 7.037302 41.461597 -11.807985 5.170645 65.325630 -15.721004 5.128338 -123.964218 54.079205 -28.117649 125.114044 11.523615 10.845150 -16.248314 -19.325480 -27.655691 -103.128983 -47.727219 1.802066 135.950623 -10.653894 -12.969959 -34.107586 4.766994 22.451969 
-3.144903 14.805075 -5.262877 -6.634245 0.000000 0.000000 -4.291215 -1.111335 -0.938330 13.916022 -1.432859 16.164629 -0.736132 13.398135 -0.474690 -1.448669 0.000000 0.000000 -72.650757 3.129035 27.005922 -35.159988 -12.152411 -15.264349 -71.482574 13.339725 -58.251385 -23.846701 8.701749 30.130373 7.090179 -4.288956 -20.211449 78.474869 19.757769 6.864227 41.454945 -11.819882 5.169288 65.335068 -15.713008 5.116257 -123.173035 55.346451 -28.519306 125.114029 11.523615 10.845149 -16.339401 -20.269529 -26.723236 -100.759621 -48.945503 1.030678 135.637695 -10.722169 -12.904627 -34.411411 5.707803 21.921606 
-3.144903 14.880836 -5.270554 -8.460308 0.000000 0.000000 -3.071019 -1.111309 -0.938291 15.796883 -1.432807 16.164511 -1.102422 13.095815 -0.709148 -1.928360 0.000000 0.000000 -72.829697 3.979100 26.523005 -34.816830 -12.062674 -15.382703 -71.146622 13.462617 -58.329544 -24.002384 8.485720 30.007610 7.394007 -4.765724 -21.339666 78.066635 19.809237 6.690675 41.448288 -11.831778 5.167929 65.344490 -15.705008 5.104181 -122.369095 56.620811 -28.903711 125.114044 11.523615 10.845151 -16.414698 -21.216711 -25.784702 -98.299950 -50.143841 0.160012 135.324600 -10.790102 -12.838898 -34.707405 6.652668 21.394608 
-3.144903 14.956598 -5.278230 -10.292012 0.000000 0.000000 -1.849153 -1.111284 -0.938251 17.683918 -1.432751 16.164398 -1.467525 12.791599 -0.941671 -2.408716 0.000000 0.000000 -73.001770 4.831421 26.041756 -34.473946 -11.972238 -15.500483 -70.810287 13.585087 -58.408508 -24.157528 8.269345 29.885504 7.689010 -5.249093 -22.467855 77.658058 19.859541 6.516659 41.441624 -11.843672 5.166567 65.353905 -15.697008 5.092107 -121.550690 57.901558 -29.268929 125.114044 11.523614 10.845149 -16.473814 -22.166521 -24.839724 -95.744446 -51.318127 -0.815983 135.011307 -10.857684 -12.772767 -34.995567 7.601317 20.870832 
